<?xml version="1.0" encoding="UTF-8" standalone="no"?>
<!-- Created with Inkscape (http://www.inkscape.org/) -->

<svg
   xmlns:dc="http://purl.org/dc/elements/1.1/"
   xmlns:cc="http://creativecommons.org/ns#"
   xmlns:rdf="http://www.w3.org/1999/02/22-rdf-syntax-ns#"
   xmlns:svg="http://www.w3.org/2000/svg"
   xmlns="http://www.w3.org/2000/svg"
   xmlns:sodipodi="http://sodipodi.sourceforge.net/DTD/sodipodi-0.dtd"
   xmlns:inkscape="http://www.inkscape.org/namespaces/inkscape"
   width="100"
   height="100"
   id="svg2"
   version="1.1"
   inkscape:version="0.48.4 r9939"
   sodipodi:docname="corner2.svg">
  <defs
     id="defs4" />
  <sodipodi:namedview
     id="base"
     pagecolor="#aa3339"
     bordercolor="#666666"
     borderopacity="1.0"
     inkscape:pageopacity="1"
     inkscape:pageshadow="2"
     inkscape:zoom="7.9195959"
     inkscape:cx="23.18043"
     inkscape:cy="45.767143"
     inkscape:document-units="px"
     inkscape:current-layer="layer1"
     showgrid="false"
     inkscape:window-width="1680"
     inkscape:window-height="1000"
     inkscape:window-x="0"
     inkscape:window-y="0"
     inkscape:window-maximized="1" />
  <metadata
     id="metadata7">
    <rdf:RDF>
      <cc:Work
         rdf:about="">
        <dc:format>image/svg+xml</dc:format>
        <dc:type
           rdf:resource="http://purl.org/dc/dcmitype/StillImage" />
        <dc:title></dc:title>
      </cc:Work>
    </rdf:RDF>
  </metadata>
  <g
     inkscape:label="Layer 1"
     inkscape:groupmode="layer"
     id="layer1"
     transform="translate(0,-952.36218)">
    <path
       style="fill:#efffdf;fill-opacity:1;fill-rule:nonzero;stroke:none"
       d="M 0 0 L 0 25 L 25 0 L 0 0 z M 0 75 L 0 100 L 25 100 L 0 75 z "
       id="rect3757"
       transform="translate(0,952.36218)" />
    <path
       id="path3836"
       d="m 99.999995,1052.3622 0,-25 -24.999995,25 24.999995,0 z m 0,-75.00002 0,-25 -24.999995,0 24.999995,25 z"
       style="fill:#efffdf;fill-opacity:1;fill-rule:nonzero;stroke:none"
       inkscape:connector-curvature="0" />
    <path
       sodipodi:type="arc"
       style="fill:#ff3333;fill-opacity:1;fill-rule:nonzero;stroke:none"
       id="path3838"
       sodipodi:cx="53.664352"
       sodipodi:cy="52.522831"
       sodipodi:rx="23.864855"
       sodipodi:ry="23.233509"
       d="m 77.529207,52.522831 a 23.864855,23.233509 0 1 1 -47.729709,0 23.864855,23.233509 0 1 1 47.729709,0 z"
       transform="matrix(1.2570787,0,0,1.2912384,-17.460314,934.54268)" />
    <path
       transform="matrix(0.87083531,0,0,0.89449928,3.2671875,955.38054)"
       d="m 77.529207,52.522831 a 23.864855,23.233509 0 1 1 -47.729709,0 23.864855,23.233509 0 1 1 47.729709,0 z"
       sodipodi:ry="23.233509"
       sodipodi:rx="23.864855"
       sodipodi:cy="52.522831"
       sodipodi:cx="53.664352"
       id="path3840"
       style="fill:#efffdf;fill-opacity:1;fill-rule:nonzero;stroke:none"
       sodipodi:type="arc" />
    <path
       sodipodi:type="arc"
       style="fill:#efffdf;fill-opacity:1;fill-rule:nonzero;stroke:none"
       id="path3842"
       sodipodi:cx="53.664352"
       sodipodi:cy="52.522831"
       sodipodi:rx="23.864855"
       sodipodi:ry="23.233509"
       d="m 77.529207,52.522831 a 23.864855,23.233509 0 1 1 -47.729709,0 23.864855,23.233509 0 1 1 47.729709,0 z"
       transform="matrix(1.1036395,0,0,1.1336297,-9.2261011,942.82073)" />
    <path
       transform="matrix(0.88602081,0,0,0.91009743,2.4522677,954.56128)"
       d="m 77.529207,52.522831 a 23.864855,23.233509 0 1 1 -47.729709,0 23.864855,23.233509 0 1 1 47.729709,0 z"
       sodipodi:ry="23.233509"
       sodipodi:rx="23.864855"
       sodipodi:cy="52.522831"
       sodipodi:cx="53.664352"
       id="path3844"
       style="fill:#ff3333;fill-opacity:1;fill-rule:nonzero;stroke:none"
       sodipodi:type="arc" />
    <path
       sodipodi:type="arc"
       style="fill:#aa3339;fill-opacity:1;fill-rule:nonzero;stroke:none"
       id="path3846"
       sodipodi:cx="53.664352"
       sodipodi:cy="52.522831"
       sodipodi:rx="23.864855"
       sodipodi:ry="23.233509"
       d="m 77.529207,52.522831 a 23.864855,23.233509 0 1 1 -47.729709,0 23.864855,23.233509 0 1 1 47.729709,0 z"
       transform="matrix(0.25059515,0,0,0.25740479,36.551974,988.84254)" />
  </g>
</svg>
