<?xml version="1.0" encoding="UTF-8" standalone="no"?>
<!-- Created with Inkscape (http://www.inkscape.org/) -->

<svg
   xmlns:dc="http://purl.org/dc/elements/1.1/"
   xmlns:cc="http://creativecommons.org/ns#"
   xmlns:rdf="http://www.w3.org/1999/02/22-rdf-syntax-ns#"
   xmlns:svg="http://www.w3.org/2000/svg"
   xmlns="http://www.w3.org/2000/svg"
   version="1.1"
   width="100"
   height="100"
   id="svg3775">
  <defs
     id="defs3777" />
  <metadata
     id="metadata3780">
    <rdf:RDF>
      <cc:Work
         rdf:about="">
        <dc:format>image/svg+xml</dc:format>
        <dc:type
           rdf:resource="http://purl.org/dc/dcmitype/StillImage" />
        <dc:title></dc:title>
      </cc:Work>
    </rdf:RDF>
  </metadata>
  <g
     transform="translate(0,-952.36218)"
     id="layer1">
    <path
       d="m 33,22.875 c -7.824358,0 -14.15625,6.363142 -14.15625,14.1875 0,7.824358 6.331892,14.15625 14.15625,14.15625 7.824358,0 14.15625,-6.331892 14.15625,-14.15625 C 47.15625,29.238142 40.824358,22.875 33,22.875 z m 34,0.21875 c -7.824358,0 -14.15625,6.331892 -14.15625,14.15625 0,7.824358 6.331892,14.1875 14.15625,14.1875 7.824358,0 14.15625,-6.363142 14.15625,-14.1875 0,-7.824358 -6.331892,-14.15625 -14.15625,-14.15625 z m -17,29.4375 c -7.824358,0 -14.15625,6.331892 -14.15625,14.15625 0,7.824358 6.331892,14.1875 14.15625,14.1875 7.824358,0 14.15625,-6.363142 14.15625,-14.1875 0,-7.824358 -6.331892,-14.15625 -14.15625,-14.15625 z"
       transform="translate(0,952.36218)"
       id="path3785"
       style="fill:#7ed3ff;fill-opacity:1;fill-rule:nonzero;stroke:none" />
  </g>
</svg>
