<?xml version="1.0" encoding="UTF-8" standalone="no"?>
<!-- Created with Inkscape (http://www.inkscape.org/) -->

<svg
   xmlns:dc="http://purl.org/dc/elements/1.1/"
   xmlns:cc="http://creativecommons.org/ns#"
   xmlns:rdf="http://www.w3.org/1999/02/22-rdf-syntax-ns#"
   xmlns:svg="http://www.w3.org/2000/svg"
   xmlns="http://www.w3.org/2000/svg"
   xmlns:inkscape="http://www.inkscape.org/namespaces/inkscape"
   version="1.1"
   width="100"
   height="100"
   id="svg2">

  <g
     transform="translate(0,-952.36218)"
     id="layer1">
    <path
       d="m 61.1875,977.59375 c -5.188513,0.30054 -10.294376,2.39849 -14.3125,6.375 -3.922273,3.88165 -7.695338,5.4994 -10.1875,5.40625 -2.492162,-0.0932 -4.985281,-1.29383 -7.90625,-7 a 5.5624342,5.5624342 0 1 0 -9.90625,5.0625 c 4.058929,7.9292 10.457755,12.7715 17.40625,13.0313 6.948495,0.2597 13.16208,-3.4352 18.40625,-8.62505 5.645264,-5.5868 14.586531,-4.42793 18.625,3.4375 a 5.5505552,5.5505552 0 1 0 9.875,-5.0625 c -4.463911,-8.69403 -13.352479,-13.12589 -22,-12.625 z"
       id="path2989"
       style="color:#000000;fill:#000000;fill-opacity:1;stroke:none;" />
  </g>
</svg>
